<?xml version="1.0" encoding="UTF-8"?>
<svg version="1.1" xmlns="http://www.w3.org/2000/svg" width="512" height="512">
<path d="M0 0 C0 159.06 0 318.12 0 482 C9.57 482 19.14 482 29 482 C29 360.56 29 239.12 29 114 C45.17 114 61.34 114 78 114 C78 235.44 78 356.88 78 482 C88.56 482 99.12 482 110 482 C110 491.9 110 501.8 110 512 C-46.42 512 -202.84 512 -364 512 C-364 502.1 -364 492.2 -364 482 C-343.54 482 -323.08 482 -302 482 C-302 389.93 -302 297.86 -302 203 C-260.09 203 -218.18 203 -175 203 C-175 295.07 -175 387.14 -175 482 C-165.43 482 -155.86 482 -146 482 C-146 380.36 -146 278.72 -146 174 C-181.64 174 -217.28 174 -254 174 C-254 139.68 -254 105.36 -254 70 C-238.9334375 65.8234375 -238.9334375 65.8234375 -223.5625 61.5625 C-186.65008205 51.31709212 -149.76845241 40.96340638 -112.89127541 30.59200287 C-98.3822089 26.51147203 -83.87145401 22.43699149 -69.359375 18.3671875 C-68.4029649 18.09896746 -67.44655479 17.83074741 -66.46116257 17.55439949 C-57.25397061 14.97237573 -48.04660949 12.39095542 -38.83921814 9.80964279 C-35.50390397 8.87454426 -32.16862439 7.93932237 -28.83335114 7.00407791 C-26.56331729 6.36759981 -24.29322683 5.73132396 -22.02313232 5.09506226 C-20.6519748 4.7106014 -19.28081986 4.32613133 -17.90966797 3.94165039 C-16.15056595 3.44853111 -16.15056595 3.44853111 -14.35592651 2.94544983 C-12.00254101 2.2824413 -9.65706958 1.59099433 -7.31814575 0.87864685 C-4 0 -4 0 0 0 Z M-88 141 C-88 160.47 -88 179.94 -88 200 C-78.43 200 -68.86 200 -59 200 C-59 180.53 -59 161.06 -59 141 C-68.57 141 -78.14 141 -88 141 Z M-253 251 C-253 270.47 -253 289.94 -253 310 C-243.43 310 -233.86 310 -224 310 C-224 290.53 -224 271.06 -224 251 C-233.57 251 -243.14 251 -253 251 Z M-88 251 C-88 270.47 -88 289.94 -88 310 C-78.43 310 -68.86 310 -59 310 C-59 290.53 -59 271.06 -59 251 C-68.57 251 -78.14 251 -88 251 Z M-253 361 C-253 380.8 -253 400.6 -253 421 C-243.43 421 -233.86 421 -224 421 C-224 401.2 -224 381.4 -224 361 C-233.57 361 -243.14 361 -253 361 Z M-88 361 C-88 380.8 -88 400.6 -88 421 C-78.43 421 -68.86 421 -59 421 C-59 401.2 -59 381.4 -59 361 C-68.57 361 -78.14 361 -88 361 Z " fill="#000000" transform="translate(383,0)"/>
</svg>
